<svg xmlns="http://www.w3.org/2000/svg" width="232" height="232"><rect x="0" y="0" width="100%" height="100%" fill="rgb(199, 128, 61)"  /><polyline points="0, 0, 29.0, 29.0, 0, 29.0, 0, 0" stroke="#000" stroke-opacity="0.02" fill-opacity="0.07200000000000001" fill="#ddd" transform="translate(0.0, 29.0) scale(1, -1)"  /><polyline points="0, 0, 29.0, 29.0, 0, 29.0, 0, 0" stroke="#000" stroke-opacity="0.02" fill-opacity="0.07200000000000001" fill="#ddd" transform="translate(58.0, 29.0) scale(-1, -1)"  /><polyline points="0, 0, 29.0, 29.0, 0, 29.0, 0, 0" stroke="#000" stroke-opacity="0.02" fill-opacity="0.07200000000000001" fill="#ddd" transform="translate(0.0, 29.0) scale(1, 1)"  /><polyline points="0, 0, 29.0, 29.0, 0, 29.0, 0, 0" stroke="#000" stroke-opacity="0.02" fill-opacity="0.07200000000000001" fill="#ddd" transform="translate(58.0, 29.0) scale(-1, 1)"  /><polyline points="0, 0, 29.0, 29.0, 0, 29.0, 0, 0" stroke="#000" stroke-opacity="0.02" fill-opacity="0.05466666666666667" fill="#ddd" transform="translate(87.0, 0.0) scale(-1, 1)"  /><polyline points="0, 0, 29.0, 29.0, 0, 29.0, 0, 0" stroke="#000" stroke-opacity="0.02" fill-opacity="0.05466666666666667" fill="#ddd" transform="translate(87.0, 58.0) scale(1, -1)"  /><polyline points="0, 0, 29.0, 29.0, 0, 29.0, 0, 0" stroke="#000" stroke-opacity="0.02" fill-opacity="0.02" fill="#ddd" transform="translate(87.0, 58.0) scale(-1, -1)"  /><polyline points="0, 0, 29.0, 29.0, 0, 29.0, 0, 0" stroke="#000" stroke-opacity="0.02" fill-opacity="0.02" fill="#ddd" transform="translate(87.0, 0.0) scale(1, 1)"  /><polyline points="0, 0, 29.0, 29.0, 0, 29.0, 0, 0" stroke="#000" stroke-opacity="0.02" fill-opacity="0.02" fill="#ddd" transform="translate(116.0, 29.0) scale(1, -1)"  /><polyline points="0, 0, 29.0, 29.0, 0, 29.0, 0, 0" stroke="#000" stroke-opacity="0.02" fill-opacity="0.02" fill="#ddd" transform="translate(174.0, 29.0) scale(-1, -1)"  /><polyline points="0, 0, 29.0, 29.0, 0, 29.0, 0, 0" stroke="#000" stroke-opacity="0.02" fill-opacity="0.02" fill="#ddd" transform="translate(116.0, 29.0) scale(1, 1)"  /><polyline points="0, 0, 29.0, 29.0, 0, 29.0, 0, 0" stroke="#000" stroke-opacity="0.02" fill-opacity="0.02" fill="#ddd" transform="translate(174.0, 29.0) scale(-1, 1)"  /><polyline points="0, 0, 29.0, 29.0, 0, 29.0, 0, 0" stroke="#000" stroke-opacity="0.02" fill-opacity="0.14133333333333334" fill="#ddd" transform="translate(203.0, 0.0) scale(-1, 1)"  /><polyline points="0, 0, 29.0, 29.0, 0, 29.0, 0, 0" stroke="#000" stroke-opacity="0.02" fill-opacity="0.14133333333333334" fill="#ddd" transform="translate(203.0, 58.0) scale(1, -1)"  /><polyline points="0, 0, 29.0, 29.0, 0, 29.0, 0, 0" stroke="#000" stroke-opacity="0.02" fill-opacity="0.02" fill="#ddd" transform="translate(203.0, 58.0) scale(-1, -1)"  /><polyline points="0, 0, 29.0, 29.0, 0, 29.0, 0, 0" stroke="#000" stroke-opacity="0.02" fill-opacity="0.02" fill="#ddd" transform="translate(203.0, 0.0) scale(1, 1)"  /><polyline points="0, 0, 29.0, 29.0, 0, 29.0, 0, 0" stroke="#000" stroke-opacity="0.02" fill-opacity="0.02" fill="#ddd" transform="translate(29.0, 58.0) scale(-1, 1)"  /><polyline points="0, 0, 29.0, 29.0, 0, 29.0, 0, 0" stroke="#000" stroke-opacity="0.02" fill-opacity="0.02" fill="#ddd" transform="translate(29.0, 116.0) scale(1, -1)"  /><polyline points="0, 0, 29.0, 29.0, 0, 29.0, 0, 0" stroke="#000" stroke-opacity="0.02" fill-opacity="0.05466666666666667" fill="#ddd" transform="translate(29.0, 116.0) scale(-1, -1)"  /><polyline points="0, 0, 29.0, 29.0, 0, 29.0, 0, 0" stroke="#000" stroke-opacity="0.02" fill-opacity="0.05466666666666667" fill="#ddd" transform="translate(29.0, 58.0) scale(1, 1)"  /><polyline points="0, 0, 29.0, 29.0, 0, 29.0, 0, 0" stroke="#000" stroke-opacity="0.02" fill-opacity="0.05466666666666667" fill="#ddd" transform="translate(58.0, 87.0) scale(1, -1)"  /><polyline points="0, 0, 29.0, 29.0, 0, 29.0, 0, 0" stroke="#000" stroke-opacity="0.02" fill-opacity="0.05466666666666667" fill="#ddd" transform="translate(116.0, 87.0) scale(-1, -1)"  /><polyline points="0, 0, 29.0, 29.0, 0, 29.0, 0, 0" stroke="#000" stroke-opacity="0.02" fill-opacity="0.05466666666666667" fill="#ddd" transform="translate(58.0, 87.0) scale(1, 1)"  /><polyline points="0, 0, 29.0, 29.0, 0, 29.0, 0, 0" stroke="#000" stroke-opacity="0.02" fill-opacity="0.05466666666666667" fill="#ddd" transform="translate(116.0, 87.0) scale(-1, 1)"  /><polyline points="0, 0, 29.0, 29.0, 0, 29.0, 0, 0" stroke="#000" stroke-opacity="0.02" fill-opacity="0.05466666666666667" fill="#ddd" transform="translate(145.0, 58.0) scale(-1, 1)"  /><polyline points="0, 0, 29.0, 29.0, 0, 29.0, 0, 0" stroke="#000" stroke-opacity="0.02" fill-opacity="0.05466666666666667" fill="#ddd" transform="translate(145.0, 116.0) scale(1, -1)"  /><polyline points="0, 0, 29.0, 29.0, 0, 29.0, 0, 0" stroke="#000" stroke-opacity="0.02" fill-opacity="0.11533333333333334" fill="#222" transform="translate(145.0, 116.0) scale(-1, -1)"  /><polyline points="0, 0, 29.0, 29.0, 0, 29.0, 0, 0" stroke="#000" stroke-opacity="0.02" fill-opacity="0.11533333333333334" fill="#222" transform="translate(145.0, 58.0) scale(1, 1)"  /><polyline points="0, 0, 29.0, 29.0, 0, 29.0, 0, 0" stroke="#000" stroke-opacity="0.02" fill-opacity="0.11533333333333334" fill="#222" transform="translate(174.0, 87.0) scale(1, -1)"  /><polyline points="0, 0, 29.0, 29.0, 0, 29.0, 0, 0" stroke="#000" stroke-opacity="0.02" fill-opacity="0.11533333333333334" fill="#222" transform="translate(232.0, 87.0) scale(-1, -1)"  /><polyline points="0, 0, 29.0, 29.0, 0, 29.0, 0, 0" stroke="#000" stroke-opacity="0.02" fill-opacity="0.11533333333333334" fill="#222" transform="translate(174.0, 87.0) scale(1, 1)"  /><polyline points="0, 0, 29.0, 29.0, 0, 29.0, 0, 0" stroke="#000" stroke-opacity="0.02" fill-opacity="0.11533333333333334" fill="#222" transform="translate(232.0, 87.0) scale(-1, 1)"  /><polyline points="0, 0, 29.0, 29.0, 0, 29.0, 0, 0" stroke="#000" stroke-opacity="0.02" fill-opacity="0.14133333333333334" fill="#ddd" transform="translate(0.0, 145.0) scale(1, -1)"  /><polyline points="0, 0, 29.0, 29.0, 0, 29.0, 0, 0" stroke="#000" stroke-opacity="0.02" fill-opacity="0.14133333333333334" fill="#ddd" transform="translate(58.0, 145.0) scale(-1, -1)"  /><polyline points="0, 0, 29.0, 29.0, 0, 29.0, 0, 0" stroke="#000" stroke-opacity="0.02" fill-opacity="0.14133333333333334" fill="#ddd" transform="translate(0.0, 145.0) scale(1, 1)"  /><polyline points="0, 0, 29.0, 29.0, 0, 29.0, 0, 0" stroke="#000" stroke-opacity="0.02" fill-opacity="0.14133333333333334" fill="#ddd" transform="translate(58.0, 145.0) scale(-1, 1)"  /><polyline points="0, 0, 29.0, 29.0, 0, 29.0, 0, 0" stroke="#000" stroke-opacity="0.02" fill-opacity="0.06333333333333334" fill="#222" transform="translate(87.0, 116.0) scale(-1, 1)"  /><polyline points="0, 0, 29.0, 29.0, 0, 29.0, 0, 0" stroke="#000" stroke-opacity="0.02" fill-opacity="0.06333333333333334" fill="#222" transform="translate(87.0, 174.0) scale(1, -1)"  /><polyline points="0, 0, 29.0, 29.0, 0, 29.0, 0, 0" stroke="#000" stroke-opacity="0.02" fill-opacity="0.15" fill="#222" transform="translate(87.0, 174.0) scale(-1, -1)"  /><polyline points="0, 0, 29.0, 29.0, 0, 29.0, 0, 0" stroke="#000" stroke-opacity="0.02" fill-opacity="0.15" fill="#222" transform="translate(87.0, 116.0) scale(1, 1)"  /><polyline points="0, 0, 29.0, 29.0, 0, 29.0, 0, 0" stroke="#000" stroke-opacity="0.02" fill-opacity="0.15" fill="#222" transform="translate(116.0, 145.0) scale(1, -1)"  /><polyline points="0, 0, 29.0, 29.0, 0, 29.0, 0, 0" stroke="#000" stroke-opacity="0.02" fill-opacity="0.15" fill="#222" transform="translate(174.0, 145.0) scale(-1, -1)"  /><polyline points="0, 0, 29.0, 29.0, 0, 29.0, 0, 0" stroke="#000" stroke-opacity="0.02" fill-opacity="0.15" fill="#222" transform="translate(116.0, 145.0) scale(1, 1)"  /><polyline points="0, 0, 29.0, 29.0, 0, 29.0, 0, 0" stroke="#000" stroke-opacity="0.02" fill-opacity="0.15" fill="#222" transform="translate(174.0, 145.0) scale(-1, 1)"  /><polyline points="0, 0, 29.0, 29.0, 0, 29.0, 0, 0" stroke="#000" stroke-opacity="0.02" fill-opacity="0.14133333333333334" fill="#ddd" transform="translate(203.0, 116.0) scale(-1, 1)"  /><polyline points="0, 0, 29.0, 29.0, 0, 29.0, 0, 0" stroke="#000" stroke-opacity="0.02" fill-opacity="0.14133333333333334" fill="#ddd" transform="translate(203.0, 174.0) scale(1, -1)"  /><polyline points="0, 0, 29.0, 29.0, 0, 29.0, 0, 0" stroke="#000" stroke-opacity="0.02" fill-opacity="0.08066666666666666" fill="#222" transform="translate(203.0, 174.0) scale(-1, -1)"  /><polyline points="0, 0, 29.0, 29.0, 0, 29.0, 0, 0" stroke="#000" stroke-opacity="0.02" fill-opacity="0.08066666666666666" fill="#222" transform="translate(203.0, 116.0) scale(1, 1)"  /><polyline points="0, 0, 29.0, 29.0, 0, 29.0, 0, 0" stroke="#000" stroke-opacity="0.02" fill-opacity="0.08066666666666666" fill="#222" transform="translate(29.0, 174.0) scale(-1, 1)"  /><polyline points="0, 0, 29.0, 29.0, 0, 29.0, 0, 0" stroke="#000" stroke-opacity="0.02" fill-opacity="0.08066666666666666" fill="#222" transform="translate(29.0, 232.0) scale(1, -1)"  /><polyline points="0, 0, 29.0, 29.0, 0, 29.0, 0, 0" stroke="#000" stroke-opacity="0.02" fill-opacity="0.11533333333333334" fill="#222" transform="translate(29.0, 232.0) scale(-1, -1)"  /><polyline points="0, 0, 29.0, 29.0, 0, 29.0, 0, 0" stroke="#000" stroke-opacity="0.02" fill-opacity="0.11533333333333334" fill="#222" transform="translate(29.0, 174.0) scale(1, 1)"  /><polyline points="0, 0, 29.0, 29.0, 0, 29.0, 0, 0" stroke="#000" stroke-opacity="0.02" fill-opacity="0.11533333333333334" fill="#222" transform="translate(58.0, 203.0) scale(1, -1)"  /><polyline points="0, 0, 29.0, 29.0, 0, 29.0, 0, 0" stroke="#000" stroke-opacity="0.02" fill-opacity="0.11533333333333334" fill="#222" transform="translate(116.0, 203.0) scale(-1, -1)"  /><polyline points="0, 0, 29.0, 29.0, 0, 29.0, 0, 0" stroke="#000" stroke-opacity="0.02" fill-opacity="0.11533333333333334" fill="#222" transform="translate(58.0, 203.0) scale(1, 1)"  /><polyline points="0, 0, 29.0, 29.0, 0, 29.0, 0, 0" stroke="#000" stroke-opacity="0.02" fill-opacity="0.11533333333333334" fill="#222" transform="translate(116.0, 203.0) scale(-1, 1)"  /><polyline points="0, 0, 29.0, 29.0, 0, 29.0, 0, 0" stroke="#000" stroke-opacity="0.02" fill-opacity="0.14133333333333334" fill="#ddd" transform="translate(145.0, 174.0) scale(-1, 1)"  /><polyline points="0, 0, 29.0, 29.0, 0, 29.0, 0, 0" stroke="#000" stroke-opacity="0.02" fill-opacity="0.14133333333333334" fill="#ddd" transform="translate(145.0, 232.0) scale(1, -1)"  /><polyline points="0, 0, 29.0, 29.0, 0, 29.0, 0, 0" stroke="#000" stroke-opacity="0.02" fill-opacity="0.11533333333333334" fill="#222" transform="translate(145.0, 232.0) scale(-1, -1)"  /><polyline points="0, 0, 29.0, 29.0, 0, 29.0, 0, 0" stroke="#000" stroke-opacity="0.02" fill-opacity="0.11533333333333334" fill="#222" transform="translate(145.0, 174.0) scale(1, 1)"  /><polyline points="0, 0, 29.0, 29.0, 0, 29.0, 0, 0" stroke="#000" stroke-opacity="0.02" fill-opacity="0.11533333333333334" fill="#222" transform="translate(174.0, 203.0) scale(1, -1)"  /><polyline points="0, 0, 29.0, 29.0, 0, 29.0, 0, 0" stroke="#000" stroke-opacity="0.02" fill-opacity="0.11533333333333334" fill="#222" transform="translate(232.0, 203.0) scale(-1, -1)"  /><polyline points="0, 0, 29.0, 29.0, 0, 29.0, 0, 0" stroke="#000" stroke-opacity="0.02" fill-opacity="0.11533333333333334" fill="#222" transform="translate(174.0, 203.0) scale(1, 1)"  /><polyline points="0, 0, 29.0, 29.0, 0, 29.0, 0, 0" stroke="#000" stroke-opacity="0.02" fill-opacity="0.11533333333333334" fill="#222" transform="translate(232.0, 203.0) scale(-1, 1)"  /></svg>