<svg xmlns="http://www.w3.org/2000/svg" width="418" height="418"><rect x="0" y="0" width="100%" height="100%" fill="rgb(65, 195, 177)"  /><rect x="0" y="20" width="100%" height="7" opacity="0.03733333333333333" fill="#ddd"  /><rect x="0" y="37" width="100%" height="17" opacity="0.12400000000000001" fill="#ddd"  /><rect x="0" y="73" width="100%" height="6" opacity="0.028666666666666667" fill="#222"  /><rect x="0" y="95" width="100%" height="13" opacity="0.08933333333333333" fill="#ddd"  /><rect x="0" y="123" width="100%" height="8" opacity="0.046" fill="#222"  /><rect x="0" y="145" width="100%" height="14" opacity="0.098" fill="#222"  /><rect x="0" y="175" width="100%" height="18" opacity="0.13266666666666665" fill="#222"  /><rect x="0" y="206" width="100%" height="11" opacity="0.07200000000000001" fill="#ddd"  /><rect x="0" y="224" width="100%" height="6" opacity="0.028666666666666667" fill="#222"  /><rect x="0" y="245" width="100%" height="10" opacity="0.06333333333333334" fill="#222"  /><rect x="0" y="267" width="100%" height="9" opacity="0.05466666666666667" fill="#ddd"  /><rect x="0" y="283" width="100%" height="12" opacity="0.08066666666666666" fill="#222"  /><rect x="0" y="310" width="100%" height="7" opacity="0.03733333333333333" fill="#ddd"  /><rect x="0" y="322" width="100%" height="5" opacity="0.02" fill="#ddd"  /><rect x="0" y="335" width="100%" height="14" opacity="0.098" fill="#222"  /><rect x="0" y="365" width="100%" height="9" opacity="0.05466666666666667" fill="#ddd"  /><rect x="0" y="390" width="100%" height="6" opacity="0.028666666666666667" fill="#222"  /><rect x="0" y="404" width="100%" height="14" opacity="0.098" fill="#222"  /><rect x="20" y="0" width="7" height="100%" opacity="0.03733333333333333" fill="#ddd"  /><rect x="37" y="0" width="17" height="100%" opacity="0.12400000000000001" fill="#ddd"  /><rect x="73" y="0" width="6" height="100%" opacity="0.028666666666666667" fill="#222"  /><rect x="95" y="0" width="13" height="100%" opacity="0.08933333333333333" fill="#ddd"  /><rect x="123" y="0" width="8" height="100%" opacity="0.046" fill="#222"  /><rect x="145" y="0" width="14" height="100%" opacity="0.098" fill="#222"  /><rect x="175" y="0" width="18" height="100%" opacity="0.13266666666666665" fill="#222"  /><rect x="206" y="0" width="11" height="100%" opacity="0.07200000000000001" fill="#ddd"  /><rect x="224" y="0" width="6" height="100%" opacity="0.028666666666666667" fill="#222"  /><rect x="245" y="0" width="10" height="100%" opacity="0.06333333333333334" fill="#222"  /><rect x="267" y="0" width="9" height="100%" opacity="0.05466666666666667" fill="#ddd"  /><rect x="283" y="0" width="12" height="100%" opacity="0.08066666666666666" fill="#222"  /><rect x="310" y="0" width="7" height="100%" opacity="0.03733333333333333" fill="#ddd"  /><rect x="322" y="0" width="5" height="100%" opacity="0.02" fill="#ddd"  /><rect x="335" y="0" width="14" height="100%" opacity="0.098" fill="#222"  /><rect x="365" y="0" width="9" height="100%" opacity="0.05466666666666667" fill="#ddd"  /><rect x="390" y="0" width="6" height="100%" opacity="0.028666666666666667" fill="#222"  /><rect x="404" y="0" width="14" height="100%" opacity="0.098" fill="#222"  /></svg>