<svg xmlns="http://www.w3.org/2000/svg" width="362" height="362"><rect x="0" y="0" width="100%" height="100%" fill="rgb(177, 83, 153)"  /><polyline points="0, 0, 45.33333333333333, 45.33333333333333, 0, 45.33333333333333, 0, 0" stroke="#000" stroke-opacity="0.02" fill-opacity="0.13266666666666665" fill="#222" transform="translate(0.0, 45.33333333333333) scale(1, -1)"  /><polyline points="0, 0, 45.33333333333333, 45.33333333333333, 0, 45.33333333333333, 0, 0" stroke="#000" stroke-opacity="0.02" fill-opacity="0.13266666666666665" fill="#222" transform="translate(90.66666666666666, 45.33333333333333) scale(-1, -1)"  /><polyline points="0, 0, 45.33333333333333, 45.33333333333333, 0, 45.33333333333333, 0, 0" stroke="#000" stroke-opacity="0.02" fill-opacity="0.13266666666666665" fill="#222" transform="translate(0.0, 45.33333333333333) scale(1, 1)"  /><polyline points="0, 0, 45.33333333333333, 45.33333333333333, 0, 45.33333333333333, 0, 0" stroke="#000" stroke-opacity="0.02" fill-opacity="0.13266666666666665" fill="#222" transform="translate(90.66666666666666, 45.33333333333333) scale(-1, 1)"  /><polyline points="0, 0, 45.33333333333333, 45.33333333333333, 0, 45.33333333333333, 0, 0" stroke="#000" stroke-opacity="0.02" fill-opacity="0.03733333333333333" fill="#ddd" transform="translate(136.0, 0.0) scale(-1, 1)"  /><polyline points="0, 0, 45.33333333333333, 45.33333333333333, 0, 45.33333333333333, 0, 0" stroke="#000" stroke-opacity="0.02" fill-opacity="0.03733333333333333" fill="#ddd" transform="translate(136.0, 90.66666666666666) scale(1, -1)"  /><polyline points="0, 0, 45.33333333333333, 45.33333333333333, 0, 45.33333333333333, 0, 0" stroke="#000" stroke-opacity="0.02" fill-opacity="0.06333333333333334" fill="#222" transform="translate(136.0, 90.66666666666666) scale(-1, -1)"  /><polyline points="0, 0, 45.33333333333333, 45.33333333333333, 0, 45.33333333333333, 0, 0" stroke="#000" stroke-opacity="0.02" fill-opacity="0.06333333333333334" fill="#222" transform="translate(136.0, 0.0) scale(1, 1)"  /><polyline points="0, 0, 45.33333333333333, 45.33333333333333, 0, 45.33333333333333, 0, 0" stroke="#000" stroke-opacity="0.02" fill-opacity="0.06333333333333334" fill="#222" transform="translate(181.33333333333331, 45.33333333333333) scale(1, -1)"  /><polyline points="0, 0, 45.33333333333333, 45.33333333333333, 0, 45.33333333333333, 0, 0" stroke="#000" stroke-opacity="0.02" fill-opacity="0.06333333333333334" fill="#222" transform="translate(272.0, 45.33333333333333) scale(-1, -1)"  /><polyline points="0, 0, 45.33333333333333, 45.33333333333333, 0, 45.33333333333333, 0, 0" stroke="#000" stroke-opacity="0.02" fill-opacity="0.06333333333333334" fill="#222" transform="translate(181.33333333333331, 45.33333333333333) scale(1, 1)"  /><polyline points="0, 0, 45.33333333333333, 45.33333333333333, 0, 45.33333333333333, 0, 0" stroke="#000" stroke-opacity="0.02" fill-opacity="0.06333333333333334" fill="#222" transform="translate(272.0, 45.33333333333333) scale(-1, 1)"  /><polyline points="0, 0, 45.33333333333333, 45.33333333333333, 0, 45.33333333333333, 0, 0" stroke="#000" stroke-opacity="0.02" fill-opacity="0.08933333333333333" fill="#ddd" transform="translate(317.3333333333333, 0.0) scale(-1, 1)"  /><polyline points="0, 0, 45.33333333333333, 45.33333333333333, 0, 45.33333333333333, 0, 0" stroke="#000" stroke-opacity="0.02" fill-opacity="0.08933333333333333" fill="#ddd" transform="translate(317.3333333333333, 90.66666666666666) scale(1, -1)"  /><polyline points="0, 0, 45.33333333333333, 45.33333333333333, 0, 45.33333333333333, 0, 0" stroke="#000" stroke-opacity="0.02" fill-opacity="0.06333333333333334" fill="#222" transform="translate(317.3333333333333, 90.66666666666666) scale(-1, -1)"  /><polyline points="0, 0, 45.33333333333333, 45.33333333333333, 0, 45.33333333333333, 0, 0" stroke="#000" stroke-opacity="0.02" fill-opacity="0.06333333333333334" fill="#222" transform="translate(317.3333333333333, 0.0) scale(1, 1)"  /><polyline points="0, 0, 45.33333333333333, 45.33333333333333, 0, 45.33333333333333, 0, 0" stroke="#000" stroke-opacity="0.02" fill-opacity="0.06333333333333334" fill="#222" transform="translate(45.33333333333333, 90.66666666666666) scale(-1, 1)"  /><polyline points="0, 0, 45.33333333333333, 45.33333333333333, 0, 45.33333333333333, 0, 0" stroke="#000" stroke-opacity="0.02" fill-opacity="0.06333333333333334" fill="#222" transform="translate(45.33333333333333, 181.33333333333331) scale(1, -1)"  /><polyline points="0, 0, 45.33333333333333, 45.33333333333333, 0, 45.33333333333333, 0, 0" stroke="#000" stroke-opacity="0.02" fill-opacity="0.14133333333333334" fill="#ddd" transform="translate(45.33333333333333, 181.33333333333331) scale(-1, -1)"  /><polyline points="0, 0, 45.33333333333333, 45.33333333333333, 0, 45.33333333333333, 0, 0" stroke="#000" stroke-opacity="0.02" fill-opacity="0.14133333333333334" fill="#ddd" transform="translate(45.33333333333333, 90.66666666666666) scale(1, 1)"  /><polyline points="0, 0, 45.33333333333333, 45.33333333333333, 0, 45.33333333333333, 0, 0" stroke="#000" stroke-opacity="0.02" fill-opacity="0.14133333333333334" fill="#ddd" transform="translate(90.66666666666666, 136.0) scale(1, -1)"  /><polyline points="0, 0, 45.33333333333333, 45.33333333333333, 0, 45.33333333333333, 0, 0" stroke="#000" stroke-opacity="0.02" fill-opacity="0.14133333333333334" fill="#ddd" transform="translate(181.33333333333331, 136.0) scale(-1, -1)"  /><polyline points="0, 0, 45.33333333333333, 45.33333333333333, 0, 45.33333333333333, 0, 0" stroke="#000" stroke-opacity="0.02" fill-opacity="0.14133333333333334" fill="#ddd" transform="translate(90.66666666666666, 136.0) scale(1, 1)"  /><polyline points="0, 0, 45.33333333333333, 45.33333333333333, 0, 45.33333333333333, 0, 0" stroke="#000" stroke-opacity="0.02" fill-opacity="0.14133333333333334" fill="#ddd" transform="translate(181.33333333333331, 136.0) scale(-1, 1)"  /><polyline points="0, 0, 45.33333333333333, 45.33333333333333, 0, 45.33333333333333, 0, 0" stroke="#000" stroke-opacity="0.02" fill-opacity="0.046" fill="#222" transform="translate(226.66666666666663, 90.66666666666666) scale(-1, 1)"  /><polyline points="0, 0, 45.33333333333333, 45.33333333333333, 0, 45.33333333333333, 0, 0" stroke="#000" stroke-opacity="0.02" fill-opacity="0.046" fill="#222" transform="translate(226.66666666666663, 181.33333333333331) scale(1, -1)"  /><polyline points="0, 0, 45.33333333333333, 45.33333333333333, 0, 45.33333333333333, 0, 0" stroke="#000" stroke-opacity="0.02" fill-opacity="0.07200000000000001" fill="#ddd" transform="translate(226.66666666666663, 181.33333333333331) scale(-1, -1)"  /><polyline points="0, 0, 45.33333333333333, 45.33333333333333, 0, 45.33333333333333, 0, 0" stroke="#000" stroke-opacity="0.02" fill-opacity="0.07200000000000001" fill="#ddd" transform="translate(226.66666666666663, 90.66666666666666) scale(1, 1)"  /><polyline points="0, 0, 45.33333333333333, 45.33333333333333, 0, 45.33333333333333, 0, 0" stroke="#000" stroke-opacity="0.02" fill-opacity="0.07200000000000001" fill="#ddd" transform="translate(272.0, 136.0) scale(1, -1)"  /><polyline points="0, 0, 45.33333333333333, 45.33333333333333, 0, 45.33333333333333, 0, 0" stroke="#000" stroke-opacity="0.02" fill-opacity="0.07200000000000001" fill="#ddd" transform="translate(362.66666666666663, 136.0) scale(-1, -1)"  /><polyline points="0, 0, 45.33333333333333, 45.33333333333333, 0, 45.33333333333333, 0, 0" stroke="#000" stroke-opacity="0.02" fill-opacity="0.07200000000000001" fill="#ddd" transform="translate(272.0, 136.0) scale(1, 1)"  /><polyline points="0, 0, 45.33333333333333, 45.33333333333333, 0, 45.33333333333333, 0, 0" stroke="#000" stroke-opacity="0.02" fill-opacity="0.07200000000000001" fill="#ddd" transform="translate(362.66666666666663, 136.0) scale(-1, 1)"  /><polyline points="0, 0, 45.33333333333333, 45.33333333333333, 0, 45.33333333333333, 0, 0" stroke="#000" stroke-opacity="0.02" fill-opacity="0.15" fill="#222" transform="translate(0.0, 226.66666666666663) scale(1, -1)"  /><polyline points="0, 0, 45.33333333333333, 45.33333333333333, 0, 45.33333333333333, 0, 0" stroke="#000" stroke-opacity="0.02" fill-opacity="0.15" fill="#222" transform="translate(90.66666666666666, 226.66666666666663) scale(-1, -1)"  /><polyline points="0, 0, 45.33333333333333, 45.33333333333333, 0, 45.33333333333333, 0, 0" stroke="#000" stroke-opacity="0.02" fill-opacity="0.15" fill="#222" transform="translate(0.0, 226.66666666666663) scale(1, 1)"  /><polyline points="0, 0, 45.33333333333333, 45.33333333333333, 0, 45.33333333333333, 0, 0" stroke="#000" stroke-opacity="0.02" fill-opacity="0.15" fill="#222" transform="translate(90.66666666666666, 226.66666666666663) scale(-1, 1)"  /><polyline points="0, 0, 45.33333333333333, 45.33333333333333, 0, 45.33333333333333, 0, 0" stroke="#000" stroke-opacity="0.02" fill-opacity="0.12400000000000001" fill="#ddd" transform="translate(136.0, 181.33333333333331) scale(-1, 1)"  /><polyline points="0, 0, 45.33333333333333, 45.33333333333333, 0, 45.33333333333333, 0, 0" stroke="#000" stroke-opacity="0.02" fill-opacity="0.12400000000000001" fill="#ddd" transform="translate(136.0, 272.0) scale(1, -1)"  /><polyline points="0, 0, 45.33333333333333, 45.33333333333333, 0, 45.33333333333333, 0, 0" stroke="#000" stroke-opacity="0.02" fill-opacity="0.06333333333333334" fill="#222" transform="translate(136.0, 272.0) scale(-1, -1)"  /><polyline points="0, 0, 45.33333333333333, 45.33333333333333, 0, 45.33333333333333, 0, 0" stroke="#000" stroke-opacity="0.02" fill-opacity="0.06333333333333334" fill="#222" transform="translate(136.0, 181.33333333333331) scale(1, 1)"  /><polyline points="0, 0, 45.33333333333333, 45.33333333333333, 0, 45.33333333333333, 0, 0" stroke="#000" stroke-opacity="0.02" fill-opacity="0.06333333333333334" fill="#222" transform="translate(181.33333333333331, 226.66666666666663) scale(1, -1)"  /><polyline points="0, 0, 45.33333333333333, 45.33333333333333, 0, 45.33333333333333, 0, 0" stroke="#000" stroke-opacity="0.02" fill-opacity="0.06333333333333334" fill="#222" transform="translate(272.0, 226.66666666666663) scale(-1, -1)"  /><polyline points="0, 0, 45.33333333333333, 45.33333333333333, 0, 45.33333333333333, 0, 0" stroke="#000" stroke-opacity="0.02" fill-opacity="0.06333333333333334" fill="#222" transform="translate(181.33333333333331, 226.66666666666663) scale(1, 1)"  /><polyline points="0, 0, 45.33333333333333, 45.33333333333333, 0, 45.33333333333333, 0, 0" stroke="#000" stroke-opacity="0.02" fill-opacity="0.06333333333333334" fill="#222" transform="translate(272.0, 226.66666666666663) scale(-1, 1)"  /><polyline points="0, 0, 45.33333333333333, 45.33333333333333, 0, 45.33333333333333, 0, 0" stroke="#000" stroke-opacity="0.02" fill-opacity="0.15" fill="#222" transform="translate(317.3333333333333, 181.33333333333331) scale(-1, 1)"  /><polyline points="0, 0, 45.33333333333333, 45.33333333333333, 0, 45.33333333333333, 0, 0" stroke="#000" stroke-opacity="0.02" fill-opacity="0.15" fill="#222" transform="translate(317.3333333333333, 272.0) scale(1, -1)"  /><polyline points="0, 0, 45.33333333333333, 45.33333333333333, 0, 45.33333333333333, 0, 0" stroke="#000" stroke-opacity="0.02" fill-opacity="0.02" fill="#ddd" transform="translate(317.3333333333333, 272.0) scale(-1, -1)"  /><polyline points="0, 0, 45.33333333333333, 45.33333333333333, 0, 45.33333333333333, 0, 0" stroke="#000" stroke-opacity="0.02" fill-opacity="0.02" fill="#ddd" transform="translate(317.3333333333333, 181.33333333333331) scale(1, 1)"  /><polyline points="0, 0, 45.33333333333333, 45.33333333333333, 0, 45.33333333333333, 0, 0" stroke="#000" stroke-opacity="0.02" fill-opacity="0.02" fill="#ddd" transform="translate(45.33333333333333, 272.0) scale(-1, 1)"  /><polyline points="0, 0, 45.33333333333333, 45.33333333333333, 0, 45.33333333333333, 0, 0" stroke="#000" stroke-opacity="0.02" fill-opacity="0.02" fill="#ddd" transform="translate(45.33333333333333, 362.66666666666663) scale(1, -1)"  /><polyline points="0, 0, 45.33333333333333, 45.33333333333333, 0, 45.33333333333333, 0, 0" stroke="#000" stroke-opacity="0.02" fill-opacity="0.046" fill="#222" transform="translate(45.33333333333333, 362.66666666666663) scale(-1, -1)"  /><polyline points="0, 0, 45.33333333333333, 45.33333333333333, 0, 45.33333333333333, 0, 0" stroke="#000" stroke-opacity="0.02" fill-opacity="0.046" fill="#222" transform="translate(45.33333333333333, 272.0) scale(1, 1)"  /><polyline points="0, 0, 45.33333333333333, 45.33333333333333, 0, 45.33333333333333, 0, 0" stroke="#000" stroke-opacity="0.02" fill-opacity="0.046" fill="#222" transform="translate(90.66666666666666, 317.3333333333333) scale(1, -1)"  /><polyline points="0, 0, 45.33333333333333, 45.33333333333333, 0, 45.33333333333333, 0, 0" stroke="#000" stroke-opacity="0.02" fill-opacity="0.046" fill="#222" transform="translate(181.33333333333331, 317.3333333333333) scale(-1, -1)"  /><polyline points="0, 0, 45.33333333333333, 45.33333333333333, 0, 45.33333333333333, 0, 0" stroke="#000" stroke-opacity="0.02" fill-opacity="0.046" fill="#222" transform="translate(90.66666666666666, 317.3333333333333) scale(1, 1)"  /><polyline points="0, 0, 45.33333333333333, 45.33333333333333, 0, 45.33333333333333, 0, 0" stroke="#000" stroke-opacity="0.02" fill-opacity="0.046" fill="#222" transform="translate(181.33333333333331, 317.3333333333333) scale(-1, 1)"  /><polyline points="0, 0, 45.33333333333333, 45.33333333333333, 0, 45.33333333333333, 0, 0" stroke="#000" stroke-opacity="0.02" fill-opacity="0.028666666666666667" fill="#222" transform="translate(226.66666666666663, 272.0) scale(-1, 1)"  /><polyline points="0, 0, 45.33333333333333, 45.33333333333333, 0, 45.33333333333333, 0, 0" stroke="#000" stroke-opacity="0.02" fill-opacity="0.028666666666666667" fill="#222" transform="translate(226.66666666666663, 362.66666666666663) scale(1, -1)"  /><polyline points="0, 0, 45.33333333333333, 45.33333333333333, 0, 45.33333333333333, 0, 0" stroke="#000" stroke-opacity="0.02" fill-opacity="0.15" fill="#222" transform="translate(226.66666666666663, 362.66666666666663) scale(-1, -1)"  /><polyline points="0, 0, 45.33333333333333, 45.33333333333333, 0, 45.33333333333333, 0, 0" stroke="#000" stroke-opacity="0.02" fill-opacity="0.15" fill="#222" transform="translate(226.66666666666663, 272.0) scale(1, 1)"  /><polyline points="0, 0, 45.33333333333333, 45.33333333333333, 0, 45.33333333333333, 0, 0" stroke="#000" stroke-opacity="0.02" fill-opacity="0.15" fill="#222" transform="translate(272.0, 317.3333333333333) scale(1, -1)"  /><polyline points="0, 0, 45.33333333333333, 45.33333333333333, 0, 45.33333333333333, 0, 0" stroke="#000" stroke-opacity="0.02" fill-opacity="0.15" fill="#222" transform="translate(362.66666666666663, 317.3333333333333) scale(-1, -1)"  /><polyline points="0, 0, 45.33333333333333, 45.33333333333333, 0, 45.33333333333333, 0, 0" stroke="#000" stroke-opacity="0.02" fill-opacity="0.15" fill="#222" transform="translate(272.0, 317.3333333333333) scale(1, 1)"  /><polyline points="0, 0, 45.33333333333333, 45.33333333333333, 0, 45.33333333333333, 0, 0" stroke="#000" stroke-opacity="0.02" fill-opacity="0.15" fill="#222" transform="translate(362.66666666666663, 317.3333333333333) scale(-1, 1)"  /></svg>